/* XPM */
static char * myIcon_xpm[] = {
"64 64 15 1",
" 	c #1700FF",
".	c #E1E1E1",
"+	c #D8D8D8",
"@	c #A5A5A5",
"#	c #CFCFCF",
"$	c #BCBCBC",
"%	c #787878",
"&	c #B1B1B1",
"*	c #E2E2EB",
"=	c #C6C6C6",
"-	c #898989",
";	c #474747",
">	c #E3E600",
",	c #989898",
"'	c #636363",
"                                                                ",
"                                                                ",
"                                                                ",
"                                                                ",
"                                                                ",
"                                                                ",
"                                                                ",
"                                                                ",
"                                                                ",
"                                                                ",
"                                                                ",
"                   .+                         .@#               ",
"                   $%&.                     *=-%+               ",
"                   =;>-=*                  .,;>&                ",
"                   *,>>;,+               .$->>>$                ",
"                    $>>>>%&.            +->>>>>$                ",
"                    $>>>>>>-#         .&%>>>>>'#                ",
"                    #'>>>>>>'@.      #->>>>>>>@                 ",
"                     @>>>>>>>>-=*  .@'>>>>>>>>$                 ",
"                     $>>>>>>>>>;,##->>>>>>>>>>$                 ",
"                     $>>>>>>>>>>>''>>>>>>>>>>'#                 ",
"                     #'>>>>>>>>>>>>>>>>>>>>>>@                  ",
"                      @>>>>>>>>>>>>>>>>>>>>>>$                  ",
"                      $>>>>>>>>>>>>>>>>>>>>>>$                  ",
"                      $>>>>>>>>>>>>>>>>>>>>>'#                  ",
"                      +%>>>>>>>>>>>>>>>>>>>>@                   ",
"                       &>>>>>>>>>>>>>>>>>>>>$                   ",
"                       &>>>>>>>>>>>>>>>>>>>>@                   ",
"                      =%>>>>>>>>>>>>>>>>>>>>'&*                 ",
"                    *&'>>>>>>>>>>>>>>>>>>>>>>;,.                ",
"                   .,;>>>>>>>>>>>>>>>>>>>>>>>>>-.               ",
"                  .->>>>>>>>>>>>>>>>>>>>>>>>>>>>-+              ",
"                 .->>>>>>>>>>>>>>>>>>>>>>>>>>>>>>%$*            ",
"                +->>>>>>>>>>>>>>>>>>>>>>>>>>>>>>>>;,.           ",
"               =%>>>>>>>>>>>>>>>>>>>>>>>>>>>>>>>>>>>-.          ",
"             .@'>>>>>>>>>>>>>>>>>>>>>>>>>>>>>>>>>>>>>-.         ",
"            .->>>>>>>>>>>>>>>>>>>>>>>>>>>>>>>>>>>>>>>>-#        ",
"           .->>>>>>>>>>>>>>>>>>>>>>>>>>>>>>>>>>>>>>>>>>'&*      ",
"          *$%;>>>>>>>>>>>>>>>>>>>>>>>>>>>>>>>>>>>;%-,&$$=*      ",
"          *.+=$$$$$$$$$$$$&%>>>>>>>>>>>>-$$$$$$$$=+.*           ",
"                           #%>>>>>>>>>>;=                       ",
"                            &>>>>>>>>>>,*                       ",
"                            =;>>>>>>>>>$                        ",
"                            *,>>>>>>>>%+                        ",
"                             $>>>>>>>>&                         ",
"                             +%>>>>>>;=                         ",
"                              &>>>>>>,*                         ",
"                              =;>>>>>$                          ",
"                              *,>>>>%+                          ",
"                               $>>>>&                           ",
"                               .->>>$                           ",
"                                $>>-.                           ",
"                                #'>$                            ",
"                                 @'#                            ",
"                                 $@                             ",
"                                 ..                             ",
"                                                                ",
"                                                                ",
"                                                                ",
"                                                                ",
"                                                                ",
"                                                                ",
"                                                                ",
"                                                                "};
